<?xml version="1.0" encoding="iso-8859-1"?>
<!-- Uploaded to: SVG Repo, www.svgrepo.com, Generator: SVG Repo Mixer Tools -->
<svg fill="#000000" height="800px" width="800px" version="1.1" id="Layer_1" xmlns="http://www.w3.org/2000/svg" xmlns:xlink="http://www.w3.org/1999/xlink" 
	 viewBox="0 0 512 512" xml:space="preserve">
<g>
	<g>
		<path d="M256,94.609c-21.478,0-38.957,17.478-38.957,38.957s17.478,38.956,38.957,38.956s38.957-17.478,38.957-38.956
			C294.957,112.088,277.478,94.609,256,94.609z"/>
	</g>
</g>
<g>
	<g>
		<path d="M256,0C114.843,0,0,114.843,0,256s114.843,256,256,256s256-114.843,256-256S397.157,0,256,0z M256,417.391
			c-21.478,0-38.957-17.478-38.957-38.957s17.478-38.956,38.957-38.956s38.957,17.478,38.957,38.956
			C294.957,399.912,277.478,417.391,256,417.391z M256,239.304c-75.185,0-136.348,61.163-136.348,136.348
			c0,25.278,7.038,48.888,19.074,69.206C75.616,405.521,33.391,335.684,33.391,256c0-122.744,99.865-222.609,222.609-222.609
			c56.772,0,102.957,46.185,102.957,102.957C358.957,193.12,312.772,239.304,256,239.304z"/>
	</g>
</g>
</svg>